<?xml version="1.0" encoding="utf-8"?>
<!-- Generator: Adobe Illustrator 27.4.0, SVG Export Plug-In . SVG Version: 6.00 Build 0)  -->
<svg version="1.1" id="acer" xmlns="http://www.w3.org/2000/svg" xmlns:xlink="http://www.w3.org/1999/xlink" x="0px" y="0px"
	 width="83px" height="20px" viewBox="0 0 83 20" style="enable-background:new 0 0 83 20;" xml:space="preserve">
<path id="acer-logo" style="fill:#80C343;" d="M82.85,0.9c-0.29-0.42-0.62-0.7-2.04-0.81c-0.37-0.03-1.6-0.07-3.66-0.07
	c-5.42,0-9.1,1.65-10.98,4.91c0.52-3.28-2.67-4.92-9.55-4.92c-8.09,0-13.14,3.27-15.15,9.81c-0.74,1.91-0.82,4.02-0.23,5.98
	l-1.91,0.13c-1.49,0.11-3.46,0.22-4.66,0.22c-2.96,0-4.8-0.5-5.51-1.5c-0.64-0.9-0.57-2.56,0.17-4.98c1.23-4.02,4.29-5.82,9.18-5.82
	c2.53,0,5,0.27,5,0.27c0.3-0.05,0.51-0.33,0.46-0.64c0-0.01,0-0.02-0.01-0.03l-0.05-0.38l-0.17-1.35c-0.11-0.89-0.77-1.41-1.97-1.57
	c-1.1-0.07-1.91-0.13-3.12-0.13h-0.07c-6.39,0.01-10.84,2.12-13.36,6.32c0.92-4.21-2.04-6.32-8.87-6.32
	c-2.73-0.05-5.46,0.06-8.18,0.33C7.14,0.32,6.21,0.96,5.84,1.92L5.3,3.65C5.2,3.97,5.35,4.13,5.76,4.13h0.01
	c0.3-0.04,1.46-0.15,3.44-0.31c2.62-0.21,4.55-0.32,5.83-0.32c3.77,0,5.35,0.95,4.76,2.84c-0.11,0.4-0.44,0.71-0.85,0.78
	c-3.56,0.59-6.39,1.02-8.48,1.28c-5.89,0.75-9.29,2.59-10.2,5.52c-1.25,4.03,1.89,6.04,9.44,6.04c3.17,0.04,6.34-0.18,9.48-0.65
	c1.47-0.25,2.22-0.63,2.51-1.58l1.41-4.49c-0.15,4.49,2.99,6.75,9.41,6.75c2.23,0.04,4.45-0.06,6.66-0.31
	c1.32-0.23,1.95-0.52,2.24-1.51l0.28-1.41c1.37,2.14,4.37,3.21,9.01,3.21c4.89,0,7.74-0.14,8.55-0.41c0.57-0.12,1.04-0.52,1.25-1.06
	c0.03-0.09,0.05-0.19,0.06-0.28l0.59-1.91c0.1-0.33-0.05-0.49-0.45-0.48l-3.13,0.15c-2.09,0.12-3.72,0.18-4.9,0.17
	c-1.54,0.08-3.08-0.07-4.58-0.46c-1.2-0.41-1.94-1.61-1.77-2.86l9.91-1.27c4.44-0.57,7.42-1.94,8.92-4.12l-3.37,11.73
	c-0.07,0.18-0.04,0.38,0.07,0.53c0.18,0.17,0.41,0.25,0.65,0.22h4.1c0.47,0.07,0.93-0.22,1.06-0.68l3.62-12.67
	c0.48-1.67,2-2.48,4.67-2.48c2.41,0,4.22,0.02,5.38,0.07c0.03,0,0.06,0,0.09,0c0.39,0,0.74-0.26,0.84-0.63l0.63-1.74
	C83.05,1.49,83.02,1.16,82.85,0.9 M16.73,16.14c-1.83,0.23-3.68,0.33-5.52,0.3c-4.17,0-5.99-0.84-5.46-2.53
	c0.38-1.21,1.47-1.94,3.28-2.19l9.48-1.28L16.73,16.14z M60.56,5.87c-0.4,1.3-2.25,2.19-5.56,2.67l-7.9,1.13l0.2-0.65
	c0.39-1.74,1.37-3.28,2.79-4.37c1.2-0.77,3.15-1.16,5.86-1.16C59.51,3.49,61.05,4.29,60.56,5.87"/>
</svg>
