<svg id="Layer_1" data-name="Layer 1" xmlns="http://www.w3.org/2000/svg" viewBox="0 0 500 500"><defs><style>.cls-1{fill:#fff;}.cls-2{fill:#ed0000;}</style></defs><title>Artboard 2</title><path class="cls-1" d="M153.58,353.44l-10.94,18.92L131.7,353.44H118v46.8h10.55V367.81l14.11,23.33,14.1-23.33v32.43h10.55v-46.8Zm41.79,47.46c14.44,0,20.17-7.32,20.17-24.06s-5.73-24.06-20.17-24.06S175.2,360,175.2,376.84s5.67,24.06,20.17,24.06m0-9.89c-7.65,0-9.23-4.42-9.23-14.17s1.58-14.17,9.23-14.17,9.23,4.42,9.23,14.17S203,391,195.37,391M232,400.24H242.5v-37h12.66v-9.75H219.3v9.75H232Zm47.2.66c14.43,0,20.17-7.32,20.17-24.06s-5.74-24.06-20.17-24.06S259,360,259,376.84s5.67,24.06,20.17,24.06m0-9.89c-7.65,0-9.23-4.42-9.23-14.17s1.58-14.17,9.23-14.17,9.23,4.42,9.23,14.17S286.79,391,279.15,391m28,9.23h10.54V383.5h4.94l9.82,16.74h12.59L333.4,381.92c5.87-1.19,9.62-5.54,9.62-13.58,0-11.14-5.14-14.9-15.82-14.9h-20Zm10.54-25.84V362.54h8.18c4.81,0,6.19,2.11,6.19,5.93s-1.45,5.93-6.19,5.93Zm47.07,26.5c13.25,0,18.32-3.76,18.32-13.45,0-7.91-3.89-11.47-8.76-13.78l-8.17-3.89c-3.89-1.84-5.08-2.24-5.08-4.42s.86-2.7,6.85-2.7a114.21,114.21,0,0,1,12.92,1V353.51a123.66,123.66,0,0,0-13.05-.72c-12.85,0-17.66,3-17.66,12.66,0,6.92,3.23,10,8.5,12.53l9.23,4.48c3.36,1.65,4.28,2.57,4.28,5.21s-1.38,3.36-7.38,3.36a77.37,77.37,0,0,1-14-1.39v10.22a94.91,94.91,0,0,0,14,1.05"/><path class="cls-1" d="M104.74,289.55,93.8,308.47,82.85,289.55H69.14v46.8H79.69V303.92L93.8,327.26l14.11-23.33v32.43h10.54v-46.8Zm22.94,46.8h10.55v-46.8H127.67Zm30,0h10.55v-37h12.66v-9.75H145v9.75h12.65Zm42.71.66c13.25,0,18.32-3.76,18.32-13.45,0-7.91-3.89-11.47-8.77-13.78l-8.18-3.89c-3.89-1.84-5.08-2.24-5.08-4.42s.86-2.7,6.86-2.7a114.1,114.1,0,0,1,12.92,1V289.62a123.77,123.77,0,0,0-13-.72c-12.85,0-17.67,3-17.67,12.65,0,6.92,3.23,10,8.5,12.53l9.23,4.48c3.36,1.65,4.29,2.57,4.29,5.21s-1.39,3.36-7.38,3.36a77.16,77.16,0,0,1-14-1.39V336a94.68,94.68,0,0,0,14,1.05m51.81-47.46v30.92c0,5.07-3.23,6.66-8.17,6.66s-8.17-1.58-8.17-6.66V289.55H225.3v31.9C225.3,333.19,233.4,337,244,337s18.72-3.82,18.72-15.55v-31.9Zm19.11,46.8h20.3c11,0,15.36-4.88,15.36-13.05,0-7.84-4.55-10.09-7.65-11.4,2.44-1.19,6.33-3.49,6.33-10.22,0-8.64-4.09-12.13-14.24-12.13H271.3Zm10.55-28.08v-9.62h7.71c4.15,0,5.21,1.38,5.21,4.61s-1.25,5-5.21,5Zm0,19v-9.89h8.63c4.22,0,5.54.92,5.54,4.88s-1.19,5-5.47,5Zm32.36,9.1h10.55v-46.8H314.21ZM347,337c13.25,0,18.33-3.76,18.33-13.45,0-7.91-3.89-11.47-8.77-13.78l-8.18-3.89c-3.89-1.84-5.07-2.24-5.07-4.42s.86-2.7,6.86-2.7a114.21,114.21,0,0,1,12.92,1V289.62a123.91,123.91,0,0,0-13.05-.72c-12.85,0-17.66,3-17.66,12.65,0,6.92,3.23,10,8.5,12.53l9.23,4.48c3.36,1.65,4.29,2.57,4.29,5.21s-1.38,3.36-7.38,3.36a77.17,77.17,0,0,1-14-1.39V336A94.68,94.68,0,0,0,347,337m52.67-47.46V308H383.1V289.55H372.55v46.8H383.1V317.76h16.55v18.59h10.54v-46.8Zm19.77,46.8H430v-46.8H419.42Z"/><path class="cls-1" d="M225.08,464.5a18.1,18.1,0,0,1-7,1.87c-2.92,0-4.13-1.1-4.13-4.46V445h-6.66v18.93c0,5.67,2.59,8.58,8.42,8.58,4.13,0,8.09-2,9.57-2.75V472h6.44V445h-6.6Z"/><path class="cls-1" d="M87.53,466.37c-1.81-4.9-6.11-9.19-6.11-21.35H74.88v1.32c0,13.48,6.55,20.25,9.3,25.64h6.66c2.8-5.39,9.35-12.16,9.35-25.64V445h-6.6c0,12.16-4.29,16.45-6.05,21.35"/><path class="cls-1" d="M188.33,444.47c-9,0-13.32,4.46-13.32,14s4.29,14,13.32,14,13.37-4.51,13.37-14-4.35-14-13.37-14m0,21.9c-4.9,0-6.6-2.42-6.6-7.87s1.71-7.81,6.6-7.87,6.6,2.37,6.6,7.87-1.76,7.87-6.6,7.87"/><path class="cls-1" d="M18.27,435.45H6V472H18.1c11.39,0,17.28-4.73,17.28-18.21,0-13.92-5.94-18.32-17.11-18.32m.17,30.26H12.77v-24h5.61c7.1,0,10,3.14,10,11.94s-3.3,12-10,12"/><path class="cls-1" d="M48.25,445H41.82v27h6.6V453.27a35.75,35.75,0,0,1,9.9-2.31v-6.49a31.88,31.88,0,0,0-10.07,2.92Z"/><path class="cls-1" d="M158.23,466.47a41.11,41.11,0,0,1-6.6-21.45H145c.33,14.52,6.22,21.79,9.35,26.74l-5.78,7.87,4.79,4,9.35-12.77A44.2,44.2,0,0,0,171.43,445h-6.66a39.83,39.83,0,0,1-6.55,21.45"/><path class="cls-1" d="M116.37,444.52c-8.7,0-12.88,4.29-12.88,14s4.24,14,13.65,14a42,42,0,0,0,10.07-1.32v-5.72a32.73,32.73,0,0,1-9.57,1.37c-5.12,0-7-1.32-7.43-6.27h18.32c.06-.82.11-2.53.11-3.35,0-7.32-2.64-12.71-12.27-12.71m-6.05,11c.49-4.68,2.48-5.94,6.16-5.94,4.62.05,5.45,2.25,5.5,5.94Z"/><path class="cls-1" d="M410.48,463V450.8h8.2V445h-8.2v-6.88h-6.66V445h-5v5.78h5v13c0,6.22,1.65,8.75,8.53,8.75a37,37,0,0,0,7-.61V466a24.42,24.42,0,0,1-5.06.44c-3,0-3.8-.66-3.8-3.52"/><path class="cls-1" d="M245.49,445h-6.44v27h6.6V453.27a35.78,35.78,0,0,1,9.9-2.31v-6.49a31.9,31.9,0,0,0-10.07,2.92Z"/><path class="cls-1" d="M485.58,444.47c-4.13,0-8.09,2-9.57,2.75V445h-6.44v27h6.6V452.5a18.08,18.08,0,0,1,7-1.87c2.92,0,4.13,1.1,4.13,4.46V472H494V453.05c0-5.67-2.59-8.58-8.42-8.58"/><rect class="cls-1" x="424.57" y="445.02" width="6.6" height="26.96"/><path class="cls-1" d="M339.79,444.47c-3.74,0-7.43,1.65-10.45,3.19-1.27-2.15-3.63-3.19-7.15-3.19-4.13,0-8.09,2-9.57,2.75V445h-6.44v27h6.6V452.5a18.07,18.07,0,0,1,7-1.87c2.92,0,4.13,1.1,4.13,4.46V472h6.66V452.56a16.28,16.28,0,0,1,6.88-1.87c2.81,0,4.24,1,4.24,4.4V472h6.66v-19.2c0-5.66-2.86-8.31-8.58-8.31"/><path class="cls-1" d="M370.16,444.47a13.05,13.05,0,0,0-8.14,2.64v-12h-6.66V472h6.33v-2.31a13.18,13.18,0,0,0,8.47,2.86c6.93,0,11.5-4.24,11.5-14s-4.57-14-11.5-14m-1.54,22.06a11,11,0,0,1-6.6-2.48V452.94a11,11,0,0,1,6.6-2.47c4.07,0,6.27,1.65,6.33,8s-2.26,8-6.33,8"/><path class="cls-1" d="M289.23,435.45h-9.3l-.44.93c-3.8,8.09-10,15.68-10,28.61v7h6.77v-7.21a12.52,12.52,0,0,1,.05-1.43h16.56a12.63,12.63,0,0,1,.05,1.43V472h6.77v-7c0-12.87-6.16-20.47-10-28.61ZM277,457.51c1.54-6.82,5-11.72,7.59-16.94,2.53,5.23,6,10.12,7.54,16.94Z"/><path class="cls-1" d="M450.32,444.47c-9,0-13.31,4.46-13.31,14s4.29,14,13.31,14,13.37-4.51,13.37-14-4.35-14-13.37-14m0,21.9c-4.9,0-6.6-2.42-6.6-7.87s1.71-7.81,6.6-7.87,6.6,2.37,6.6,7.87-1.76,7.87-6.6,7.87"/><polygon class="cls-1" points="423.58 436.66 427.87 441.06 432.16 436.66 427.87 432.26 423.58 436.66"/><rect class="cls-1" x="387.65" y="445.02" width="6.6" height="26.96"/><polygon class="cls-1" points="386.66 436.66 390.95 441.06 395.24 436.66 390.95 432.26 386.66 436.66"/><rect class="cls-1" x="62.83" y="445.02" width="6.6" height="26.96"/><polygon class="cls-1" points="61.84 436.66 66.13 441.06 70.42 436.66 66.13 432.26 61.84 436.66"/><polygon class="cls-2" points="203.62 95.62 249.38 174.88 295.14 95.62 249.38 16.36 203.62 95.62"/><polygon class="cls-2" points="340.9 174.88 249.38 174.88 295.14 254.15 386.66 254.15 340.9 174.88"/><polygon class="cls-2" points="157.85 174.88 249.38 174.88 203.62 254.15 112.09 254.15 157.85 174.88"/></svg>