<?xml version="1.0" encoding="utf-8"?>
<!-- Generator: Adobe Illustrator 24.2.1, SVG Export Plug-In . SVG Version: 6.00 Build 0)  -->
<svg version="1.1" id="图层_1" xmlns="http://www.w3.org/2000/svg" xmlns:xlink="http://www.w3.org/1999/xlink" x="0px" y="0px"
	 viewBox="0 0 318.21 157.49" style="enable-background:new 0 0 318.21 157.49;" xml:space="preserve">
<style type="text/css">
	.st0{fill:#0075C2;}
	.st1{fill:#EE7800;}
</style>
<g>
	<path class="st0" d="M97.98,113.72c5.65,6.19,14.42,9.63,24.69,9.68l0.41,0c0.61,0.02,1.2,0.03,1.78,0.03
		c12.71,0,22.9-4.71,27.12-9.16l1.04-11.51c-4.24,3.62-11.92,9.41-23.26,9.94c-2.02,0.09-4.09-0.12-6.19-0.37
		c-9-1.05-19.33-6.62-18.84-18.87l0.05-1.28h51.29c0.11-0.71,0.15-1.23,0.25-2.26c1.01-11.52-1.4-20.8-6.95-26.86
		c-4.89-5.33-12.16-8.15-21.03-8.15c-20.23,0-35.61,14.31-37.4,34.79C90.08,99.42,92.52,107.73,97.98,113.72z M105.72,82.21
		c1.61-9.9,10.79-17.37,21.37-17.37c5.15,0,9.18,1.55,11.99,4.61c2.88,3.14,4.21,7.79,3.75,13.09l-0.11,1.22h-37.25L105.72,82.21z"
		/>
	<path class="st0" d="M208.45,56.86l-3.13,35.76c-0.82,9.36-6.99,19.43-18.62,19.43c-3.83,0-6.84-1.17-8.96-3.49
		c-2.95-3.21-4.06-8.42-3.41-15.9l3.13-35.81h-14.13l-3.57,40.81c-0.71,8.1,1.21,15.09,5.41,19.67c3.68,4.02,8.96,6.06,15.68,6.06
		c9.96,0,18.04-4.34,22.77-12.03l0.38-0.71h0.58l-0.94,10.79h13.29l5.65-64.57H208.45z"/>
	<polygon class="st0" points="227.31,56.86 221.66,121.43 235.79,121.43 241.44,56.86 	"/>
	<polygon class="st1" points="229.34,35.12 228.1,49.32 242.29,49.32 243.53,35.12 	"/>
	<path class="st0" d="M298.39,57.49c-2.89-0.67-10.53-2.26-18.11-2.26c-19.94,0-35.67,14.3-37.4,34.01
		c-0.85,9.67,1.68,18.04,7.32,24.18c5.7,6.22,14.36,9.65,24.39,9.65c6.6,0,13.07-0.84,18.27-2.38l1.07-12.27
		c-5.07,2.66-10.22,4.01-15.31,4.01c-0.33,0-0.65-0.01-0.98-0.02c-0.3-0.01-0.6-0.01-0.91-0.01c-0.31,0-0.62-0.01-0.94-0.01
		c-5.61-0.17-10.33-2.23-13.64-5.96c-3.81-4.29-5.66-10.62-5.07-17.37c0.93-10.61,8.21-22.37,22-23.15c0.9-0.05,1.85-0.08,2.93-0.08
		l0.17,0c6.6,0,11.25,2.3,15.08,4.64L298.39,57.49z"/>
	<path class="st0" d="M63.02,33.59c-17.83,0-36.48,7.72-37.96,24.96c-1.28,15.02,10.02,20.31,22.42,23.8l1.08,0.3
		c12.56,3.53,22.48,6.32,21.64,16.13c-0.94,10.98-13.23,13.91-20.35,13.91c-6.51,0-19.53-3.39-28.88-10.9l-1.15,13.5
		c7.66,5.48,18.01,8.61,28.46,8.61c21.67,0,36.59-10.68,38-27.2c1.45-16.89-15.94-21.68-26.32-24.54
		c-10.57-2.96-19.7-5.51-18.91-14.71c0.78-9.12,10.99-13.13,19.87-12.91c14.02,0.37,20.9,6.69,25.45,10.87
		c0.14,0.12,0.27,0.25,0.4,0.37l1.19-15.16C81.55,36.21,72.26,33.59,63.02,33.59z"/>
</g>
</svg>
