<svg xml:space="preserve" version="1.1" xmlns="http://www.w3.org/2000/svg" height="191" width="500">
<g>
	<g id="Unihertz_Logo">
		<path d="M147.28,72.49c0,0.19,0,0.48,0,0.67v61.7h17.67V73.45c0-0.29,0-0.57,0-0.86h-17.67V72.49z" class="st0" id="svg_2"></path>
		<path d="M155.97,46.7c-5.83,0-10.41,4.68-10.41,10.41s4.68,10.41,10.41,10.41
			c5.73,0,10.41-4.68,10.41-10.41C166.38,51.38,161.7,46.7,155.97,46.7L155.97,46.7z" class="st0" id="svg_3"></path>
		<path d="M244.13,126.74v-26.55c0-4.2-0.86-8.21-2.67-12.03c-1.72-3.82-4.11-7.16-7.07-10.03
			c-2.96-2.87-6.3-5.06-10.22-6.69c-3.82-1.62-7.93-2.39-12.13-2.2c-4.49,0-8.6,0.86-12.51,2.48c-0.76,0.29-1.53,0.67-2.2,1.05
			V42.69l-17.29,8.12v50.33v33.72l0,0h17.29l0,0h0.1v-34.38c0-2.01,0.38-3.92,1.15-5.64c0.76-1.72,1.91-3.25,3.25-4.49
			c1.34-1.24,2.96-2.2,4.68-2.87c1.72-0.67,3.63-1.05,5.54-1.05c2.01,0,3.92,0.38,5.73,1.15c1.81,0.76,3.34,1.81,4.68,3.15
			c1.34,1.34,2.39,2.87,3.15,4.68c0.76,1.81,1.15,3.72,1.15,5.73v33.72L244.13,126.74L244.13,126.74z" class="st0" id="svg_4"></path>
		<path d="M125.69,77.07c-2.96-2.77-6.3-4.97-10.12-6.49c-3.82-1.53-7.83-2.29-12.03-2.1
			c-4.49,0-8.6,0.76-12.42,2.39c-3.82,1.62-7.16,3.82-10.03,6.59c-2.87,2.77-5.16,6.11-6.78,9.84s-2.48,7.74-2.48,11.94v36.58h17.19
			c0-0.1,0-0.29,0-0.38V98.56c0-1.91,0.38-3.82,1.15-5.44c0.76-1.72,1.81-3.15,3.25-4.3c1.34-1.15,2.87-2.1,4.68-2.77
			c1.72-0.67,3.53-1.05,5.54-1.05s3.92,0.38,5.73,1.15c1.81,0.76,3.34,1.81,4.68,3.06c1.34,1.24,2.39,2.77,3.15,4.49
			c0.76,1.72,1.15,3.63,1.15,5.54v36.1c0,0.19,0,0.38,0,0.48h17.1c0-0.1,0-0.29,0-0.38V98.37c0-4.11-0.86-7.93-2.58-11.65
			C130.95,83.09,128.56,79.84,125.69,77.07L125.69,77.07z" class="st0" id="svg_5"></path>
		<path d="M347.47,102.38c0-2.39,0.48-4.58,1.34-6.69c0.86-2.01,2.1-3.82,3.63-5.35
			c1.53-1.53,3.25-2.67,5.25-3.53c1.91-0.86,4.01-1.24,6.3-1.24h7.74V66.19h-7.74c-4.87,0.19-9.46,1.24-13.85,3.06
			c-4.3,1.81-8.12,4.3-11.37,7.45c-3.25,3.15-5.83,6.88-7.74,11.08c-1.91,4.2-3.06,8.79-3.06,13.56v33.43h19.58v-32.38H347.47
			L347.47,102.38z" class="st0" id="svg_6"></path>
		<path d="M394.56,129.03c2.96,2.77,6.3,4.97,10.12,6.49c3.82,1.53,7.83,2.29,12.03,2.1v-16.52
			c-2.01,0-3.92-0.38-5.64-1.15c-1.81-0.76-3.34-1.81-4.68-3.06c-1.34-1.24-2.39-2.77-3.15-4.49c-0.76-1.72-1.15-3.63-1.15-5.54
			V88.34h16.14V70.58H402.1V55.87c0-0.19,0-0.38,0-0.48L385,63.42v44.32c0,4.11,0.86,7.93,2.58,11.65
			C389.3,123.02,391.6,126.26,394.56,129.03L394.56,129.03z" class="st0" id="svg_7"></path>
		<path d="M482.43,67.81h-47.47c-0.48,0-0.96,0-1.43,0v17.67c0.38,0,0.76,0,1.15,0h31.23l-39.06,41.64v8.6
			l0,0h13.94h2.2h41.07h9.84v-17.29v-0.38H459.6l37.73-40.21l2.29-2.48l0.38-0.38v-7.16L482.43,67.81L482.43,67.81z" class="st0" id="svg_8"></path>
		<path d="M46.32,68.1L46.32,68.1c0,0.1,0,0.29,0,0.38v36.87c0,1.91-0.38,3.82-1.15,5.44
			c-0.38,0.86-0.86,1.62-1.43,2.39c-0.48,0.67-1.15,1.34-1.81,1.91c-0.57,0.48-1.15,0.86-1.72,1.34c-0.86,0.57-1.81,1.15-2.87,1.53
			c-0.57,0.19-1.05,0.29-1.62,0.48c-0.48,0.1-0.96,0.29-1.53,0.29c-0.76,0.1-1.53,0.19-2.29,0.19c-0.86,0-1.72-0.1-2.58-0.29
			c-0.19,0-0.38-0.1-0.67-0.1c-0.86-0.19-1.62-0.38-2.48-0.76c-0.48-0.19-0.86-0.48-1.34-0.67c-0.96-0.48-1.81-1.05-2.58-1.72
			c-0.29-0.19-0.57-0.38-0.76-0.67c-0.48-0.38-0.76-0.96-1.15-1.43c-0.76-0.96-1.43-2.01-1.91-3.15c-0.29-0.67-0.48-1.43-0.67-2.2
			c-0.29-1.05-0.48-2.2-0.48-3.34V76.12l0,0v-7.55c0-0.19,0-0.38,0-0.48H0l0,0l0,0c0,0.1,0,0.29,0,0.38v37.06
			c0,2.48,0.38,4.97,1.05,7.35c0.38,1.43,0.86,2.87,1.53,4.3c1.34,2.87,3.06,5.44,5.16,7.74c0.57,0.67,1.24,1.34,1.81,1.91
			c2.96,2.77,6.3,4.97,10.12,6.49c1.43,0.57,2.96,1.05,4.49,1.34c2.48,0.57,4.97,0.86,7.55,0.67l0,0l0,0c4.39,0,8.6-0.76,12.42-2.39
			c1.81-0.76,3.63-1.72,5.25-2.77c0.86-0.57,1.72-1.15,2.58-1.81c0.76-0.67,1.53-1.24,2.29-2.01c2.87-2.77,5.16-6.11,6.78-9.84
			c1.62-3.72,2.48-7.74,2.48-11.94V68.1l0,0H46.32L46.32,68.1z" class="st0" id="svg_9"></path>
		<path d="M288.16,138.11h1.15c10.22,0,19.1-4.01,26.27-11.84l1.53-1.62v-27.7l-10.51,15.66
			c-2.2,3.25-4.87,5.73-8.12,7.64c-3.15,1.81-6.69,2.77-10.89,2.77c-2.2,0-4.49-0.57-6.88-1.81l38.97-38.49l-3.72-4.11
			c-7.45-8.21-16.52-12.42-26.93-12.42c-10.32,0-19.1,3.53-26.17,10.6c-7.07,6.97-10.6,15.38-10.7,25.02V102
			c0,9.55,3.63,18.05,10.7,25.21C270.01,134.48,278.51,138.11,288.16,138.11L288.16,138.11z M274.12,87.49
			c4.11-4.11,8.69-6.21,13.94-6.21c3.25,0,6.21,0.67,8.98,2.01l-27.22,27.03c-1.24-2.67-1.91-5.64-1.91-8.88
			C267.91,96.27,269.91,91.69,274.12,87.49L274.12,87.49z" class="st0" id="svg_10"></path>
		<path d="M380.04,179.27c-78.51,4.2-118.15-27.41-131.81-44.99l-17.19,8.12
			c11.37,14.14,53.96,55.68,156.35,47.47c55.11-6.49,90.74-33.52,101.91-45.56h-19.87C457.02,154.44,423.78,175.83,380.04,179.27
			L380.04,179.27z" class="st0" id="svg_11"></path>
		<path d="M102.87-0.1C56.92-0.1,7.83,25.88,0.86,59.5h16.91c6.78-27.41,46.61-48.42,85.1-48.42
			c37.54,0,60.65,13.18,74.4,31.52l16.33-7.64C174.4,15.66,147.76-0.1,102.87-0.1L102.87-0.1z" class="st0" id="svg_12"></path>
	</g>
</g>
</svg>